<svg xmlns="http://www.w3.org/2000/svg" width="538" height="429" fill="none" viewBox="0 0 538 429">
  <path stroke="#EBEBEB" stroke-width=".597" d="M451.651 1v426.309M536.782 3v424M361.633 1v425.499M271.617 1v426.309M181.601 1v426.309M91.583 1v426.309M1.567 1v427.12M1 1h535M1 54h535M1 107h531.451M1 160h531.451M1 213h533.16M1 266h534.868M1 319h534.868M1 372h534.868M1 425.001h535"/>
  <path fill="url(#a)" fill-opacity=".5" d="M363.273 286.251c-45.721 0-40.641-102.523-78.234-102.523-37.593 0-99.571 145.032-99.571 145.032s-21.336 58.302-90.426 58.302c-75.186 0-93.474-35.797-93.474-35.797v74.543h534.429v-31.257C495.059 225.401 486.212 162 448.619 162c-42.673 0-39.625 124.251-85.346 124.251Z"/>
  <path fill="url(#b)" fill-opacity=".15" d="M363.272 334.46c-45.721 0-40.64-68.025-78.233-68.025s-99.571 96.23-99.571 96.23-21.336 38.684-90.426 38.684c-75.186 0-93.474-23.752-93.474-23.752v49.46h534.429v-20.739c-40.939-112.232-49.786-154.299-87.378-154.299-42.673 0-39.625 82.441-85.347 82.441Z"/>
  <path fill="url(#c)" fill-opacity=".1" d="M363.273 404.571c-45.721 0-40.641-16.52-78.234-16.52-37.593 0-99.571 23.37-99.571 23.37s-21.336 9.395-90.426 9.395c-75.186 0-93.474-5.769-93.474-5.769v12.012h534.429v-5.037c-40.938-27.256-49.785-37.472-87.378-37.472-42.673 0-39.625 20.021-85.346 20.021Z"/>
  <path stroke="url(#d)" stroke-width="1.791" d="M535.997 394.551C495.444 226.314 485.674 162 448.435 162c-42.271 0-38.245 123.58-83.536 123.58-45.291 0-45.291-101.969-82.529-101.969-37.239 0-96.62 144.249-96.62 144.249s-23.149 57.987-91.588 57.987c-74.478 0-92.594-35.604-92.594-35.604"/>
  <defs>
    <linearGradient id="a" x1="272.846" x2="272.846" y1="428.782" y2="162" gradientUnits="userSpaceOnUse">
      <stop stop-color="#EAFEEA"/>
      <stop offset="1" stop-color="#84AEFF"/>
    </linearGradient>
    <linearGradient id="b" x1="272.846" x2="272.846" y1="429.03" y2="252.019" gradientUnits="userSpaceOnUse">
      <stop stop-color="#EAFEEA"/>
      <stop offset="1" stop-color="#84AEFF"/>
    </linearGradient>
    <linearGradient id="c" x1="272.846" x2="272.846" y1="427.538" y2="384.55" gradientUnits="userSpaceOnUse">
      <stop stop-color="#EAFEEA"/>
      <stop offset="1" stop-color="#84AEFF"/>
    </linearGradient>
    <linearGradient id="d" x1="1.568" x2="535.997" y1="278.276" y2="278.276" gradientUnits="userSpaceOnUse">
      <stop stop-color="#09E82C"/>
      <stop offset="1" stop-color="#3E80FE"/>
    </linearGradient>
  </defs>
</svg>
