<svg xmlns="http://www.w3.org/2000/svg" width="21" height="21" fill="none" viewBox="0 0 21 21">
  <path fill="#333" d="M10.293.5c-.112 0-.224.013-.334.036L9.958.534 1.65 2.196l-.002.002A1.667 1.667 0 0 0 .293 3.833v13.334a1.666 1.666 0 0 0 1.358 1.637l8.307 1.662a1.664 1.664 0 0 0 1.514-.454 1.67 1.67 0 0 0 .488-1.179V2.167A1.667 1.667 0 0 0 10.293.5Zm3.333 1.667v2.5h1.667v1.666h-1.667V8h1.667v1.667h-1.667v1.666h1.667V13h-1.667v1.667h1.667v1.666h-1.667v2.5h5c.921 0 1.667-.745 1.667-1.666V3.833c0-.92-.746-1.666-1.667-1.666h-5Zm3.334 2.5h.833a.834.834 0 0 1 0 1.666h-.833V4.667ZM2.948 6.333H4.95l1.036 2.492c.085.204.152.44.217.707h.028a7.43 7.43 0 0 1 .224-.726l1.159-2.473h1.823l-2.178 4.13 2.243 4.202H7.557L6.304 11.95c-.048-.096-.103-.289-.15-.556h-.018a6.488 6.488 0 0 1-.17.579l-1.26 2.694H2.75l2.32-4.172-2.123-4.162ZM16.96 8h.833a.834.834 0 0 1 0 1.667h-.833V8Zm0 3.333h.833a.834.834 0 0 1 0 1.667h-.833v-1.667Zm0 3.334h.833a.834.834 0 0 1 0 1.666h-.833v-1.666Z"/>
</svg>
