<svg xmlns="http://www.w3.org/2000/svg" width="25" height="25" fill="none" viewBox="0 0 25 25">
  <mask id="a" width="25" height="25" x="0" y="0" maskUnits="userSpaceOnUse" style="mask-type:alpha">
    <path fill="#D9D9D9" d="M.293.5h24v24h-24z"/>
  </mask>
  <g mask="url(#a)">
    <path fill="#333" d="M10.293 11h1c.283 0 .52-.096.713-.287a.968.968 0 0 0 .287-.713V9a.967.967 0 0 0-.287-.713.968.968 0 0 0-.713-.287h-1.5a.48.48 0 0 0-.35.15.48.48 0 0 0-.15.35v4c0 .133.05.25.15.35a.48.48 0 0 0 .7 0c.1-.1.15-.217.15-.35V11Zm0-1V9h1v1h-1Zm5 3c.283 0 .52-.096.713-.287a.968.968 0 0 0 .287-.713V9a.967.967 0 0 0-.287-.713.968.968 0 0 0-.713-.287h-1.5a.48.48 0 0 0-.35.15.48.48 0 0 0-.15.35v4c0 .133.05.25.15.35.1.1.217.15.35.15h1.5Zm-1-1V9h1v3h-1Zm4-1h.5a.48.48 0 0 0 .35-.15.48.48 0 0 0 0-.7.48.48 0 0 0-.35-.15h-.5V9h.5a.48.48 0 0 0 .35-.15.48.48 0 0 0 0-.7.48.48 0 0 0-.35-.15h-1a.48.48 0 0 0-.35.15.48.48 0 0 0-.15.35v4c0 .133.05.25.15.35a.48.48 0 0 0 .7 0c.1-.1.15-.217.15-.35V11Zm-10 7.5c-.55 0-1.02-.196-1.412-.587a1.926 1.926 0 0 1-.588-1.413v-12c0-.55.196-1.02.588-1.413A1.926 1.926 0 0 1 8.293 2.5h12c.55 0 1.02.196 1.413.587.391.392.587.863.587 1.413v12c0 .55-.196 1.02-.587 1.413a1.926 1.926 0 0 1-1.413.587h-12Zm-4 4c-.55 0-1.02-.196-1.412-.587a1.926 1.926 0 0 1-.588-1.413v-13a.97.97 0 0 1 .288-.713.968.968 0 0 1 .712-.287c.283 0 .52.096.713.287.191.192.287.43.287.713v13h13a.97.97 0 0 1 .713.288c.191.191.287.429.287.712s-.096.52-.287.712a.968.968 0 0 1-.713.288h-13Z"/>
  </g>
</svg>
