<svg xmlns="http://www.w3.org/2000/svg" width="25" height="25" fill="none" viewBox="0 0 25 25">
  <mask id="a" width="25" height="25" x="0" y="0" maskUnits="userSpaceOnUse" style="mask-type:alpha">
    <path fill="#D9D9D9" d="M.293.5h24v24h-24z"/>
  </mask>
  <g mask="url(#a)">
    <path fill="#333" d="M8.293 21.5c-.55 0-1.02-.196-1.412-.587a1.926 1.926 0 0 1-.588-1.413v-2h-2c-.55 0-1.02-.196-1.412-.587a1.926 1.926 0 0 1-.588-1.413v-4c0-.85.292-1.563.875-2.137.583-.575 1.292-.863 2.125-.863h14c.85 0 1.563.287 2.138.863.575.575.862 1.287.862 2.137v4c0 .55-.196 1.02-.587 1.413a1.926 1.926 0 0 1-1.413.587h-2v2c0 .55-.196 1.02-.587 1.413a1.926 1.926 0 0 1-1.413.587h-8Zm10-14h-12v-2c0-.55.196-1.02.588-1.412A1.926 1.926 0 0 1 8.293 3.5h8c.55 0 1.02.196 1.413.588.391.391.587.862.587 1.412v2Zm0 5.5c.283 0 .52-.096.713-.287a.968.968 0 0 0 .287-.713.968.968 0 0 0-.287-.713.968.968 0 0 0-.713-.287.968.968 0 0 0-.712.287.968.968 0 0 0-.288.713c0 .283.096.52.288.713a.968.968 0 0 0 .712.287Zm-10 6.5h8v-4h-8v4Z"/>
  </g>
</svg>
